<?xml version="1.0" encoding="utf-8"?>
<!-- Generator: Adobe Illustrator 23.0.3, SVG Export Plug-In . SVG Version: 6.00 Build 0)  -->
<svg version="1.1" id="Слой_1" xmlns="http://www.w3.org/2000/svg" xmlns:xlink="http://www.w3.org/1999/xlink" x="0px" y="0px"
	 viewBox="0 0 512 512" style="enable-background:new 0 0 512 512;" xml:space="preserve">
<style type="text/css">
	.st0{fill:#0051FF;}
</style>
<path class="st0" d="M267.6,203.5v25.7c0,8.2,1.6,15,4.9,20.4c4.4,7.4,11.7,11.6,20,11.6c8.1,0,16.2-4,24-11.7l85-85
	c18.7-18.7,18.7-49,0-67.7l-85-85C308.7,3.9,300.6,0,292.5,0c-12.4,0-24.9,9.9-24.9,32v23.4C146.9,62.5,47,155.1,32.1,276.4
	c-0.8,6.8,3,13.3,9.4,15.8c1.8,0.7,3.7,1.1,5.5,1.1c4.7,0,9.2-2.2,12.1-6.1c39.8-54.4,103.8-86.9,171.1-86.9
	C242.7,200.2,255.2,201.3,267.6,203.5z"/>
<path class="st0" d="M470.3,219.8c-6.3-2.5-13.6-0.4-17.6,5.1c-39.8,54.4-103.8,86.9-171.1,86.9c-12.5,0-25-1.1-37.4-3.4v-25.7
	c0-22.1-12.5-32-24.9-32c-8.1,0-16.2,4-24,11.7l-85,85c-18.7,18.7-18.7,49,0,67.7l85,85c7.8,7.8,15.9,11.7,24,11.7
	c12.4,0,24.9-9.9,24.9-32v-23.4c120.7-7.1,220.6-99.8,235.5-221C480.5,228.8,476.6,222.3,470.3,219.8z"/>
</svg>
