<svg id="Capa_1" enable-background="new 0 0 512 512" height="512" viewBox="0 0 512 512" width="512" xmlns="http://www.w3.org/2000/svg"><g><path d="m206 242h100c25.499 0 46.525-19.093 49.599-43.76 47.861-16.867 80.401-62.097 80.401-113.691v-7.549c0-30.327-24.673-55-55-55h-25v-7c0-8.284-6.716-15-15-15h-170c-8.284 0-15 6.716-15 15v177c0 27.614 22.386 50 50 50zm175-190c13.785 0 25 11.215 25 25v7.55c0 34.891-19.811 65.908-50 81v-113.55z"/><path d="m68 444.5h386.845c2.122-3.953 5.132-7.542 9.054-10.446 11.62-8.607 5.533-27.053-8.928-27.053h-419.971c-19.33 0-35 15.67-35 35v35c0 19.33 15.67 35 35 35h419.971c14.461 0 20.548-18.447 8.928-27.054-3.922-2.905-6.932-6.494-9.054-10.446h-386.421c-8.077 0-15.027-6.207-15.407-14.275-.406-8.615 6.458-15.726 14.983-15.726z"/><path d="m477 272h-419.971c-14.461 0-20.548 18.447-8.928 27.053 3.922 2.905 6.932 6.494 9.054 10.446h386.845c8.525 0 15.389 7.111 14.983 15.725-.38 8.068-7.33 14.275-15.407 14.275h-386.421c-2.122 3.953-5.132 7.542-9.054 10.446-11.62 8.608-5.533 27.055 8.928 27.055h419.971c19.33 0 35-15.67 35-35v-35c0-19.33-15.67-35-35-35z"/></g></svg>